# xmcd
#
# Track frame offsets: 
#        150
#        14032
#        35147
#        52790
#        84548
#        107476
#        129820
#        146317
#        166690
#        187220
#        219185
#
# Disc length: 3245 seconds
#
# Revision: 0
# Processed by: cddbd v1.5.2PL0 Copyright (c) Steve Scherf et al.
# Submitted via: ExactAudioCopy v1.0b3
#
DISCID=8a0cab0b
DTITLE=The Eames Brothers Band - Open Road
DYEAR=2005
DGENRE=Classical
TTITLE0=Gonna Stay Up All Night
TTITLE1=Waitin' By  The Roadside
TTITLE2=West Wind
TTITLE3=Open Road
TTITLE4=Old Mountain 
TTITLE5=Blind Mahalia
TTITLE6=Another Round
TTITLE7=Worried Blues
TTITLE8=Goin' Home
TTITLE9=Earth Blues
TTITLE10=Indian Summer Blues
EXTD=
EXTT0=
EXTT1=
EXTT2=
EXTT3=
EXTT4=
EXTT5=
EXTT6=
EXTT7=
EXTT8=
EXTT9=
EXTT10=
PLAYORDER=
